<?xml version="1.0" encoding="UTF-8" standalone="no"?>
<svg
   xmlns:dc="http://purl.org/dc/elements/1.1/"
   xmlns:cc="http://creativecommons.org/ns#"
   xmlns:rdf="http://www.w3.org/1999/02/22-rdf-syntax-ns#"
   xmlns:svg="http://www.w3.org/2000/svg"
   xmlns="http://www.w3.org/2000/svg"
   xmlns:sodipodi="http://sodipodi.sourceforge.net/DTD/sodipodi-0.dtd"
   xmlns:inkscape="http://www.inkscape.org/namespaces/inkscape"
   width="40"
   height="40"
   viewBox="0 0 40 40"
   fill="none"
   version="1.1"
   id="svg16"
   sodipodi:docname="AppMenuLink.svg"
   inkscape:version="1.0.2 (e86c8708, 2021-01-15)">
  <metadata
     id="metadata22">
    <rdf:RDF>
      <cc:Work
         rdf:about="">
        <dc:format>image/svg+xml</dc:format>
        <dc:type
           rdf:resource="http://purl.org/dc/dcmitype/StillImage" />
        <dc:title></dc:title>
      </cc:Work>
    </rdf:RDF>
  </metadata>
  <defs
     id="defs20" />
  <sodipodi:namedview
     pagecolor="#ffffff"
     bordercolor="#666666"
     borderopacity="1"
     objecttolerance="10"
     gridtolerance="10"
     guidetolerance="10"
     inkscape:pageopacity="0"
     inkscape:pageshadow="2"
     inkscape:window-width="1920"
     inkscape:window-height="1027"
     id="namedview18"
     showgrid="false"
     inkscape:snap-grids="true"
     inkscape:zoom="11.620495"
     inkscape:cx="6.417068"
     inkscape:cy="12.145227"
     inkscape:window-x="0"
     inkscape:window-y="25"
     inkscape:window-maximized="1"
     inkscape:current-layer="svg16" />
  <rect
     style="fill:none;fill-rule:evenodd"
     id="rect24"
     width="40"
     height="40"
     x="-12.21979"
     y="-4.905127" />
  <g
     id="g29"
     transform="translate(11.992775,5.1298109)">
    <path
       d="m 2.3822,11.9327 h 6 v 16.125"
       stroke="#000000"
       stroke-width="2"
       stroke-linecap="round"
       stroke-linejoin="round"
       id="path10" />
    <path
       d="M 1.53845,28.4327 H 14.476"
       stroke="#000000"
       stroke-width="2"
       stroke-miterlimit="10"
       stroke-linecap="round"
       id="path12" />
    <path
       d="M 6.8072,3.90768 C 6.4512,3.90768 6.10319,3.80211 5.80718,3.60432 5.51117,3.40654 5.28046,3.12542 5.14422,2.79651 5.00798,2.4676 4.97234,2.10568 5.04179,1.75652 5.11124,1.40735 5.28268,1.08662 5.53441,0.834887 5.78615,0.583152 6.10687,0.411719 6.45604,0.342266 6.80521,0.272812 7.16713,0.308458 7.49603,0.444696 7.82494,0.580934 8.10606,0.811644 8.30385,1.10765 8.50163,1.40366 8.6072,1.75167 8.6072,2.10768 8.6072,2.58507 8.41756,3.04291 8.07999,3.38047 7.74243,3.71804 7.28459,3.90768 6.8072,3.90768 Z"
       fill="#000000"
       id="path14" />
  </g>
</svg>
