<svg width="20" height="20" viewBox="0 0 20 20" fill="none" xmlns="http://www.w3.org/2000/svg">
<path d="M19.1667 2.85714H0.833333C0.375 2.85714 0 2.21429 0 1.42857C0 0.642857 0.375 0 0.833333 0H19.1667C19.625 0 20 0.642857 20 1.42857C20 2.21429 19.625 2.85714 19.1667 2.85714ZM19.1667 11.4286H0.833333C0.375 11.4286 0 10.7857 0 10C0 9.21429 0.375 8.57143 0.833333 8.57143H19.1667C19.625 8.57143 20 9.21429 20 10C20 10.7857 19.625 11.4286 19.1667 11.4286ZM19.1667 20H0.833333C0.375 20 0 19.3571 0 18.5714C0 17.7857 0.375 17.1429 0.833333 17.1429H19.1667C19.625 17.1429 20 17.7857 20 18.5714C20 19.3571 19.625 20 19.1667 20Z" fill="black"/>
</svg>
